<svg width="17" height="16" viewBox="0 0 17 16" fill="none" xmlns="http://www.w3.org/2000/svg">
<path d="M2.53409 1.29896H11.9565V11.7349H1.4V2.43305C1.4 1.80671 1.90775 1.29896 2.53409 1.29896Z" stroke="black" stroke-width="0.8"/>
<path d="M1.00398 6.49083L12.3321 0.8905L15.9946 3.68544L4.69485 9.27533L1.00398 6.49083Z" fill="black" stroke="black" stroke-width="0.0511043"/>
<mask id="path-3-inside-1_261_12214" fill="white">
<path d="M4.63354 9.24126L15.9901 3.70779V14.9718L4.76131 14.9999L4.63354 9.24126Z"/>
</mask>
<path d="M4.63354 9.24126L15.9901 3.70779V14.9718L4.76131 14.9999L4.63354 9.24126Z" fill="white"/>
<path d="M4.63354 9.24126L4.49915 8.96544L4.32244 9.05154L4.3268 9.24806L4.63354 9.24126ZM15.9901 3.70779H16.2969V3.217L15.8557 3.43198L15.9901 3.70779ZM15.9901 14.9718L15.9908 15.2787L16.2969 15.2779V14.9718H15.9901ZM4.76131 14.9999L4.45456 15.0067L4.46124 15.3075L4.76207 15.3067L4.76131 14.9999ZM4.76794 9.51708L16.1245 3.98361L15.8557 3.43198L4.49915 8.96544L4.76794 9.51708ZM15.6832 3.70779V14.9718H16.2969V3.70779H15.6832ZM15.9893 14.665L4.76054 14.6931L4.76207 15.3067L15.9908 15.2787L15.9893 14.665ZM5.06805 14.9931L4.94029 9.23445L4.3268 9.24806L4.45456 15.0067L5.06805 14.9931Z" fill="black" mask="url(#path-3-inside-1_261_12214)"/>
<path d="M1 6.51682L4.74765 9.1994V14.9719L1 12.1535V6.51682Z" fill="black" stroke="black" stroke-width="0.0511043"/>
<rect x="12.752" y="9.32227" width="3.23864" height="5.64961" fill="black"/>
<ellipse cx="14.3713" cy="9.35507" rx="1.61932" ry="0.28576" fill="black"/>
</svg>
