<svg width="42" height="42" viewBox="0 0 42 42" fill="none" xmlns="http://www.w3.org/2000/svg">
<path d="M6.41484 34.125H35.5359C35.6954 34.125 35.8532 34.0936 36.0005 34.0326C36.1478 33.9716 36.2817 33.8821 36.3944 33.7694C36.5071 33.6567 36.5966 33.5228 36.6576 33.3755C36.7186 33.2282 36.75 33.0704 36.75 32.9109V13.125H6.5625C6.2144 13.125 5.88056 13.2633 5.63442 13.5094C5.38828 13.7556 5.25 14.0894 5.25 14.4375V32.9602C5.25 33.2691 5.37272 33.5654 5.59118 33.7838C5.80963 34.0023 6.10591 34.125 6.41484 34.125Z" stroke="white" stroke-opacity="0.4" stroke-width="3.0625" stroke-linecap="round" stroke-linejoin="round"/>
<path d="M36.75 13.125V9.18751C36.75 8.83941 36.6117 8.50557 36.3656 8.25943C36.1194 8.01329 35.7856 7.87501 35.4375 7.87501H26.7914C26.621 7.87441 26.4521 7.90743 26.2945 7.97218C26.1368 8.03693 25.9935 8.13214 25.8727 8.25235L21 13.125" stroke="white" stroke-opacity="0.4" stroke-width="3.0625" stroke-linecap="round" stroke-linejoin="round"/>
<path d="M24.9375 23.625H17.0625" stroke="white" stroke-opacity="0.4" stroke-width="3.0625" stroke-linecap="round" stroke-linejoin="round"/>
<path d="M21 19.6875V27.5625" stroke="white" stroke-opacity="0.4" stroke-width="3.0625" stroke-linecap="round" stroke-linejoin="round"/>
</svg>
