<svg width="42" height="42" viewBox="0 0 42 42" fill="none" xmlns="http://www.w3.org/2000/svg">
<path d="M36.75 34.125V10.5C36.75 10.1519 36.6117 9.81806 36.3656 9.57192C36.1194 9.32578 35.7856 9.1875 35.4375 9.1875H26.693C26.4092 9.18867 26.1332 9.28066 25.9055 9.45L21.3445 12.8625C21.1168 13.0318 20.8408 13.1238 20.557 13.125H9.1875C8.8394 13.125 8.50556 13.2633 8.25942 13.5094C8.01328 13.7556 7.875 14.0894 7.875 14.4375V18.375" stroke="white" stroke-opacity="0.4" stroke-width="3.0625" stroke-linecap="round" stroke-linejoin="round"/>
<path d="M36.75 34.125L31.7953 19.2773C31.7089 19.0148 31.5419 18.7862 31.318 18.6242C31.0941 18.4622 30.8248 18.375 30.5484 18.375H4.44609C4.23855 18.375 4.03397 18.4242 3.84913 18.5186C3.66428 18.6129 3.50446 18.7498 3.38277 18.9179C3.26108 19.0861 3.181 19.2806 3.14909 19.4857C3.11718 19.6908 3.13436 19.9005 3.19922 20.0977L7.875 34.125H36.75Z" stroke="white" stroke-opacity="0.4" stroke-width="3.0625" stroke-linecap="round" stroke-linejoin="round"/>
</svg>
