<svg width="42" height="42" viewBox="0 0 42 42" fill="none" xmlns="http://www.w3.org/2000/svg">
<path d="M10.5 35.4375C10.1519 35.4375 9.81805 35.2992 9.57191 35.0531C9.32576 34.8069 9.18748 34.4731 9.18748 34.125V27.1195C8.46743 27.463 7.66941 27.6102 6.8742 27.5461C6.20088 27.4966 5.54674 27.2993 4.95833 26.9683C4.36993 26.6373 3.86172 26.1806 3.46989 25.6308C3.07806 25.081 2.81223 24.4516 2.69133 23.7873C2.57042 23.1231 2.59741 22.4404 2.77038 21.7878C2.94334 21.1352 3.25803 20.5287 3.69204 20.0116C4.12606 19.4944 4.66873 19.0793 5.28143 18.7958C5.89413 18.5122 6.56181 18.3672 7.23693 18.371C7.91206 18.3749 8.57804 18.5275 9.18748 18.818V11.8125C9.18748 11.4644 9.32576 11.1306 9.57191 10.8844C9.81805 10.6383 10.1519 10.5 10.5 10.5H18.1617C17.8182 9.77995 17.6711 8.98193 17.7351 8.18672C17.7846 7.5134 17.9819 6.85925 18.3129 6.27085C18.644 5.68244 19.1007 5.17424 19.6505 4.78241C20.2003 4.39058 20.8297 4.12475 21.4939 4.00384C22.1581 3.88294 22.8408 3.90993 23.4934 4.08289C24.146 4.25586 24.7525 4.57055 25.2696 5.00456C25.7868 5.43857 26.2019 5.98124 26.4855 6.59395C26.769 7.20665 26.9141 7.87432 26.9102 8.54945C26.9064 9.22458 26.7538 9.89056 26.4633 10.5H34.125C34.4731 10.5 34.8069 10.6383 35.0531 10.8844C35.2992 11.1306 35.4375 11.4644 35.4375 11.8125V18.818C34.7174 18.4745 33.9194 18.3273 33.1242 18.3914C32.4509 18.4409 31.7967 18.6382 31.2083 18.9692C30.6199 19.3002 30.1117 19.7569 29.7199 20.3067C29.3281 20.8565 29.0622 21.4859 28.9413 22.1501C28.8204 22.8144 28.8474 23.4971 29.0204 24.1497C29.1933 24.8023 29.508 25.4088 29.942 25.9259C30.3761 26.4431 30.9187 26.8582 31.5314 27.1417C32.1441 27.4253 32.8118 27.5703 33.4869 27.5665C34.1621 27.5626 34.828 27.41 35.4375 27.1195V34.125C35.4375 34.4731 35.2992 34.8069 35.0531 35.0531C34.8069 35.2992 34.4731 35.4375 34.125 35.4375H10.5Z" stroke="white" stroke-opacity="0.4" stroke-width="3.11987" stroke-linecap="round" stroke-linejoin="round"/>
</svg>
